<mxfile host="app.diagrams.net" agent="Mozilla/5.0 (Windows NT 10.0; Win64; x64) AppleWebKit/537.36 (KHTML, like Gecko) Chrome/130.0.0.0 YaBrowser/24.12.0.0 Safari/537.36" version="24.7.17">
  <diagram name="Страница — 1" id="AVN9i6M1l0PhNxlAUeYG">
    <mxGraphModel dx="2006" dy="676" grid="1" gridSize="10" guides="1" tooltips="1" connect="1" arrows="1" fold="1" page="1" pageScale="1" pageWidth="827" pageHeight="1169" math="0" shadow="0">
      <root>
        <mxCell id="0" />
        <mxCell id="1" parent="0" />
        <mxCell id="QfYBvfX-g-FYj6JUSHEv-9" value="Да" style="edgeStyle=orthogonalEdgeStyle;rounded=0;orthogonalLoop=1;jettySize=auto;html=1;" edge="1" parent="1" source="QfYBvfX-g-FYj6JUSHEv-1" target="QfYBvfX-g-FYj6JUSHEv-8">
          <mxGeometry relative="1" as="geometry" />
        </mxCell>
        <mxCell id="QfYBvfX-g-FYj6JUSHEv-11" value="Нет" style="edgeStyle=orthogonalEdgeStyle;rounded=0;orthogonalLoop=1;jettySize=auto;html=1;entryX=0.5;entryY=0;entryDx=0;entryDy=0;" edge="1" parent="1" source="QfYBvfX-g-FYj6JUSHEv-1" target="QfYBvfX-g-FYj6JUSHEv-10">
          <mxGeometry relative="1" as="geometry">
            <Array as="points">
              <mxPoint x="350" y="40" />
            </Array>
          </mxGeometry>
        </mxCell>
        <mxCell id="QfYBvfX-g-FYj6JUSHEv-1" value="Закрытый вверх?" style="ellipse;whiteSpace=wrap;html=1;" vertex="1" parent="1">
          <mxGeometry x="20" width="120" height="80" as="geometry" />
        </mxCell>
        <mxCell id="QfYBvfX-g-FYj6JUSHEv-13" value="Да" style="edgeStyle=orthogonalEdgeStyle;rounded=0;orthogonalLoop=1;jettySize=auto;html=1;" edge="1" parent="1" source="QfYBvfX-g-FYj6JUSHEv-8" target="QfYBvfX-g-FYj6JUSHEv-12">
          <mxGeometry relative="1" as="geometry" />
        </mxCell>
        <mxCell id="QfYBvfX-g-FYj6JUSHEv-15" value="Нет" style="edgeStyle=orthogonalEdgeStyle;rounded=0;orthogonalLoop=1;jettySize=auto;html=1;" edge="1" parent="1" source="QfYBvfX-g-FYj6JUSHEv-8" target="QfYBvfX-g-FYj6JUSHEv-14">
          <mxGeometry relative="1" as="geometry" />
        </mxCell>
        <mxCell id="QfYBvfX-g-FYj6JUSHEv-8" value="Шнурки?" style="ellipse;whiteSpace=wrap;html=1;" vertex="1" parent="1">
          <mxGeometry x="-120" y="90" width="120" height="80" as="geometry" />
        </mxCell>
        <mxCell id="QfYBvfX-g-FYj6JUSHEv-10" value="Открытый вверх?" style="ellipse;whiteSpace=wrap;html=1;" vertex="1" parent="1">
          <mxGeometry x="500" y="40" width="120" height="80" as="geometry" />
        </mxCell>
        <mxCell id="QfYBvfX-g-FYj6JUSHEv-17" value="Да" style="edgeStyle=orthogonalEdgeStyle;rounded=0;orthogonalLoop=1;jettySize=auto;html=1;" edge="1" parent="1" source="QfYBvfX-g-FYj6JUSHEv-12" target="QfYBvfX-g-FYj6JUSHEv-16">
          <mxGeometry relative="1" as="geometry" />
        </mxCell>
        <mxCell id="QfYBvfX-g-FYj6JUSHEv-12" value="Твердая подошва?" style="ellipse;whiteSpace=wrap;html=1;" vertex="1" parent="1">
          <mxGeometry x="-280" y="200" width="120" height="80" as="geometry" />
        </mxCell>
        <mxCell id="QfYBvfX-g-FYj6JUSHEv-23" value="Да" style="edgeStyle=orthogonalEdgeStyle;rounded=0;orthogonalLoop=1;jettySize=auto;html=1;" edge="1" parent="1" source="QfYBvfX-g-FYj6JUSHEv-14" target="QfYBvfX-g-FYj6JUSHEv-22">
          <mxGeometry relative="1" as="geometry" />
        </mxCell>
        <mxCell id="QfYBvfX-g-FYj6JUSHEv-56" value="Нет" style="edgeStyle=orthogonalEdgeStyle;rounded=0;orthogonalLoop=1;jettySize=auto;html=1;" edge="1" parent="1" source="QfYBvfX-g-FYj6JUSHEv-14" target="QfYBvfX-g-FYj6JUSHEv-55">
          <mxGeometry relative="1" as="geometry" />
        </mxCell>
        <mxCell id="QfYBvfX-g-FYj6JUSHEv-14" value="Твердая подошва?" style="ellipse;whiteSpace=wrap;html=1;" vertex="1" parent="1">
          <mxGeometry x="100" y="220" width="120" height="80" as="geometry" />
        </mxCell>
        <mxCell id="QfYBvfX-g-FYj6JUSHEv-21" value="да" style="edgeStyle=orthogonalEdgeStyle;rounded=0;orthogonalLoop=1;jettySize=auto;html=1;" edge="1" parent="1" source="QfYBvfX-g-FYj6JUSHEv-16" target="QfYBvfX-g-FYj6JUSHEv-20">
          <mxGeometry relative="1" as="geometry" />
        </mxCell>
        <mxCell id="QfYBvfX-g-FYj6JUSHEv-42" value="Нет" style="edgeStyle=orthogonalEdgeStyle;rounded=0;orthogonalLoop=1;jettySize=auto;html=1;" edge="1" parent="1" source="QfYBvfX-g-FYj6JUSHEv-16" target="QfYBvfX-g-FYj6JUSHEv-41">
          <mxGeometry relative="1" as="geometry" />
        </mxCell>
        <mxCell id="QfYBvfX-g-FYj6JUSHEv-16" value="Высокое голенище" style="ellipse;whiteSpace=wrap;html=1;" vertex="1" parent="1">
          <mxGeometry x="-430" y="290" width="120" height="80" as="geometry" />
        </mxCell>
        <mxCell id="QfYBvfX-g-FYj6JUSHEv-20" value="Ботильоны" style="ellipse;whiteSpace=wrap;html=1;" vertex="1" parent="1">
          <mxGeometry x="-430" y="410" width="120" height="80" as="geometry" />
        </mxCell>
        <mxCell id="QfYBvfX-g-FYj6JUSHEv-25" value="Да" style="edgeStyle=orthogonalEdgeStyle;rounded=0;orthogonalLoop=1;jettySize=auto;html=1;" edge="1" parent="1" source="QfYBvfX-g-FYj6JUSHEv-22" target="QfYBvfX-g-FYj6JUSHEv-24">
          <mxGeometry relative="1" as="geometry" />
        </mxCell>
        <mxCell id="QfYBvfX-g-FYj6JUSHEv-22" value="Теплая обивка" style="ellipse;whiteSpace=wrap;html=1;" vertex="1" parent="1">
          <mxGeometry y="320" width="80" height="80" as="geometry" />
        </mxCell>
        <mxCell id="QfYBvfX-g-FYj6JUSHEv-24" value="Ботинки" style="ellipse;whiteSpace=wrap;html=1;" vertex="1" parent="1">
          <mxGeometry y="480" width="80" height="80" as="geometry" />
        </mxCell>
        <mxCell id="QfYBvfX-g-FYj6JUSHEv-29" value="Да" style="edgeStyle=orthogonalEdgeStyle;rounded=0;orthogonalLoop=1;jettySize=auto;html=1;exitX=0;exitY=0.5;exitDx=0;exitDy=0;" edge="1" parent="1" source="QfYBvfX-g-FYj6JUSHEv-10" target="QfYBvfX-g-FYj6JUSHEv-28">
          <mxGeometry relative="1" as="geometry">
            <mxPoint x="370" y="180" as="sourcePoint" />
          </mxGeometry>
        </mxCell>
        <mxCell id="QfYBvfX-g-FYj6JUSHEv-32" value="Да" style="edgeStyle=orthogonalEdgeStyle;rounded=0;orthogonalLoop=1;jettySize=auto;html=1;exitX=0;exitY=0.5;exitDx=0;exitDy=0;" edge="1" parent="1" source="QfYBvfX-g-FYj6JUSHEv-28" target="QfYBvfX-g-FYj6JUSHEv-31">
          <mxGeometry relative="1" as="geometry" />
        </mxCell>
        <mxCell id="QfYBvfX-g-FYj6JUSHEv-62" value="Нет" style="edgeStyle=orthogonalEdgeStyle;rounded=0;orthogonalLoop=1;jettySize=auto;html=1;" edge="1" parent="1" source="QfYBvfX-g-FYj6JUSHEv-28" target="QfYBvfX-g-FYj6JUSHEv-61">
          <mxGeometry relative="1" as="geometry" />
        </mxCell>
        <mxCell id="QfYBvfX-g-FYj6JUSHEv-28" value="Мягкая подошва?" style="ellipse;whiteSpace=wrap;html=1;" vertex="1" parent="1">
          <mxGeometry x="380" y="230" width="80" height="80" as="geometry" />
        </mxCell>
        <mxCell id="QfYBvfX-g-FYj6JUSHEv-36" value="Нет" style="edgeStyle=orthogonalEdgeStyle;rounded=0;orthogonalLoop=1;jettySize=auto;html=1;entryX=0.5;entryY=0;entryDx=0;entryDy=0;" edge="1" parent="1" source="QfYBvfX-g-FYj6JUSHEv-31" target="QfYBvfX-g-FYj6JUSHEv-35">
          <mxGeometry relative="1" as="geometry" />
        </mxCell>
        <mxCell id="QfYBvfX-g-FYj6JUSHEv-78" value="Да" style="edgeStyle=orthogonalEdgeStyle;rounded=0;orthogonalLoop=1;jettySize=auto;html=1;" edge="1" parent="1" source="QfYBvfX-g-FYj6JUSHEv-31" target="QfYBvfX-g-FYj6JUSHEv-33">
          <mxGeometry relative="1" as="geometry" />
        </mxCell>
        <mxCell id="QfYBvfX-g-FYj6JUSHEv-31" value="Липучки?" style="ellipse;whiteSpace=wrap;html=1;" vertex="1" parent="1">
          <mxGeometry x="310" y="360" width="80" height="80" as="geometry" />
        </mxCell>
        <mxCell id="QfYBvfX-g-FYj6JUSHEv-33" value="Сандали" style="ellipse;whiteSpace=wrap;html=1;" vertex="1" parent="1">
          <mxGeometry x="300" y="550" width="80" height="80" as="geometry" />
        </mxCell>
        <mxCell id="QfYBvfX-g-FYj6JUSHEv-38" value="Да" style="edgeStyle=orthogonalEdgeStyle;rounded=0;orthogonalLoop=1;jettySize=auto;html=1;" edge="1" parent="1" source="QfYBvfX-g-FYj6JUSHEv-35" target="QfYBvfX-g-FYj6JUSHEv-37">
          <mxGeometry relative="1" as="geometry" />
        </mxCell>
        <mxCell id="QfYBvfX-g-FYj6JUSHEv-64" value="Нет" style="edgeStyle=orthogonalEdgeStyle;rounded=0;orthogonalLoop=1;jettySize=auto;html=1;exitX=1.028;exitY=0.385;exitDx=0;exitDy=0;exitPerimeter=0;" edge="1" parent="1" source="QfYBvfX-g-FYj6JUSHEv-35">
          <mxGeometry relative="1" as="geometry">
            <mxPoint x="510" y="470" as="sourcePoint" />
            <mxPoint x="620" y="490" as="targetPoint" />
            <Array as="points">
              <mxPoint x="610" y="471" />
              <mxPoint x="610" y="491" />
            </Array>
          </mxGeometry>
        </mxCell>
        <mxCell id="QfYBvfX-g-FYj6JUSHEv-35" value="Легкие?" style="ellipse;whiteSpace=wrap;html=1;" vertex="1" parent="1">
          <mxGeometry x="420" y="440" width="80" height="80" as="geometry" />
        </mxCell>
        <mxCell id="QfYBvfX-g-FYj6JUSHEv-37" value="тапочки" style="ellipse;whiteSpace=wrap;html=1;" vertex="1" parent="1">
          <mxGeometry x="430" y="590" width="80" height="80" as="geometry" />
        </mxCell>
        <mxCell id="QfYBvfX-g-FYj6JUSHEv-44" value="Да" style="edgeStyle=orthogonalEdgeStyle;rounded=0;orthogonalLoop=1;jettySize=auto;html=1;" edge="1" parent="1" source="QfYBvfX-g-FYj6JUSHEv-41" target="QfYBvfX-g-FYj6JUSHEv-43">
          <mxGeometry relative="1" as="geometry" />
        </mxCell>
        <mxCell id="QfYBvfX-g-FYj6JUSHEv-49" value="Нет" style="edgeStyle=orthogonalEdgeStyle;rounded=0;orthogonalLoop=1;jettySize=auto;html=1;" edge="1" parent="1" source="QfYBvfX-g-FYj6JUSHEv-41" target="QfYBvfX-g-FYj6JUSHEv-48">
          <mxGeometry relative="1" as="geometry" />
        </mxCell>
        <mxCell id="QfYBvfX-g-FYj6JUSHEv-41" value="Мягкая подошва?" style="ellipse;whiteSpace=wrap;html=1;" vertex="1" parent="1">
          <mxGeometry x="-240" y="400" width="120" height="80" as="geometry" />
        </mxCell>
        <mxCell id="QfYBvfX-g-FYj6JUSHEv-43" value="Кеды" style="ellipse;whiteSpace=wrap;html=1;" vertex="1" parent="1">
          <mxGeometry x="-350" y="530" width="120" height="80" as="geometry" />
        </mxCell>
        <mxCell id="QfYBvfX-g-FYj6JUSHEv-46" value="Мокасины" style="ellipse;whiteSpace=wrap;html=1;" vertex="1" parent="1">
          <mxGeometry x="190" y="420" width="120" height="80" as="geometry" />
        </mxCell>
        <mxCell id="QfYBvfX-g-FYj6JUSHEv-53" value="Нет" style="edgeStyle=orthogonalEdgeStyle;rounded=0;orthogonalLoop=1;jettySize=auto;html=1;" edge="1" parent="1" source="QfYBvfX-g-FYj6JUSHEv-48" target="QfYBvfX-g-FYj6JUSHEv-50">
          <mxGeometry relative="1" as="geometry" />
        </mxCell>
        <mxCell id="QfYBvfX-g-FYj6JUSHEv-48" value="теплая обивка?" style="ellipse;whiteSpace=wrap;html=1;" vertex="1" parent="1">
          <mxGeometry x="-190" y="570" width="120" height="80" as="geometry" />
        </mxCell>
        <mxCell id="QfYBvfX-g-FYj6JUSHEv-50" value="Лоферы" style="ellipse;whiteSpace=wrap;html=1;" vertex="1" parent="1">
          <mxGeometry x="-20" y="620" width="120" height="80" as="geometry" />
        </mxCell>
        <mxCell id="QfYBvfX-g-FYj6JUSHEv-58" value="Да" style="edgeStyle=orthogonalEdgeStyle;rounded=0;orthogonalLoop=1;jettySize=auto;html=1;" edge="1" parent="1" source="QfYBvfX-g-FYj6JUSHEv-55" target="QfYBvfX-g-FYj6JUSHEv-57">
          <mxGeometry relative="1" as="geometry" />
        </mxCell>
        <mxCell id="QfYBvfX-g-FYj6JUSHEv-55" value="Мягкая подошва?" style="ellipse;whiteSpace=wrap;html=1;" vertex="1" parent="1">
          <mxGeometry x="130" y="340" width="80" height="80" as="geometry" />
        </mxCell>
        <mxCell id="QfYBvfX-g-FYj6JUSHEv-60" value="Да" style="edgeStyle=orthogonalEdgeStyle;rounded=0;orthogonalLoop=1;jettySize=auto;html=1;" edge="1" parent="1" source="QfYBvfX-g-FYj6JUSHEv-57" target="QfYBvfX-g-FYj6JUSHEv-59">
          <mxGeometry relative="1" as="geometry" />
        </mxCell>
        <mxCell id="QfYBvfX-g-FYj6JUSHEv-57" value="Теплая обивка?" style="ellipse;whiteSpace=wrap;html=1;" vertex="1" parent="1">
          <mxGeometry x="130" y="500" width="80" height="80" as="geometry" />
        </mxCell>
        <mxCell id="QfYBvfX-g-FYj6JUSHEv-59" value="Валенки" style="ellipse;whiteSpace=wrap;html=1;" vertex="1" parent="1">
          <mxGeometry x="130" y="660" width="80" height="80" as="geometry" />
        </mxCell>
        <mxCell id="QfYBvfX-g-FYj6JUSHEv-61" value="Мягкая подошва?" style="ellipse;whiteSpace=wrap;html=1;" vertex="1" parent="1">
          <mxGeometry x="540" y="230" width="80" height="80" as="geometry" />
        </mxCell>
        <mxCell id="QfYBvfX-g-FYj6JUSHEv-66" value="Да" style="edgeStyle=orthogonalEdgeStyle;rounded=0;orthogonalLoop=1;jettySize=auto;html=1;" edge="1" parent="1" source="QfYBvfX-g-FYj6JUSHEv-63" target="QfYBvfX-g-FYj6JUSHEv-65">
          <mxGeometry relative="1" as="geometry" />
        </mxCell>
        <mxCell id="QfYBvfX-g-FYj6JUSHEv-69" value="Нет" style="edgeStyle=orthogonalEdgeStyle;rounded=0;orthogonalLoop=1;jettySize=auto;html=1;" edge="1" parent="1" source="QfYBvfX-g-FYj6JUSHEv-63" target="QfYBvfX-g-FYj6JUSHEv-68">
          <mxGeometry relative="1" as="geometry" />
        </mxCell>
        <mxCell id="QfYBvfX-g-FYj6JUSHEv-63" value="Тупой носик?" style="ellipse;whiteSpace=wrap;html=1;" vertex="1" parent="1">
          <mxGeometry x="570" y="490" width="80" height="80" as="geometry" />
        </mxCell>
        <mxCell id="QfYBvfX-g-FYj6JUSHEv-65" value="Балетки" style="ellipse;whiteSpace=wrap;html=1;" vertex="1" parent="1">
          <mxGeometry x="570" y="650" width="80" height="80" as="geometry" />
        </mxCell>
        <mxCell id="QfYBvfX-g-FYj6JUSHEv-71" value="Да" style="edgeStyle=orthogonalEdgeStyle;rounded=0;orthogonalLoop=1;jettySize=auto;html=1;" edge="1" parent="1" source="QfYBvfX-g-FYj6JUSHEv-68" target="QfYBvfX-g-FYj6JUSHEv-70">
          <mxGeometry relative="1" as="geometry" />
        </mxCell>
        <mxCell id="QfYBvfX-g-FYj6JUSHEv-68" value="Для бега?" style="ellipse;whiteSpace=wrap;html=1;" vertex="1" parent="1">
          <mxGeometry x="730" y="490" width="80" height="80" as="geometry" />
        </mxCell>
        <mxCell id="QfYBvfX-g-FYj6JUSHEv-70" value="Кроссовки" style="ellipse;whiteSpace=wrap;html=1;" vertex="1" parent="1">
          <mxGeometry x="730" y="650" width="80" height="80" as="geometry" />
        </mxCell>
        <mxCell id="QfYBvfX-g-FYj6JUSHEv-72" value="Тупой носик?" style="ellipse;whiteSpace=wrap;html=1;" vertex="1" parent="1">
          <mxGeometry x="210" y="290" width="120" height="80" as="geometry" />
        </mxCell>
        <mxCell id="QfYBvfX-g-FYj6JUSHEv-73" value="Нет" style="endArrow=classic;html=1;rounded=0;exitX=1;exitY=0.5;exitDx=0;exitDy=0;entryX=0.584;entryY=-0.025;entryDx=0;entryDy=0;entryPerimeter=0;" edge="1" parent="1" source="QfYBvfX-g-FYj6JUSHEv-14" target="QfYBvfX-g-FYj6JUSHEv-72">
          <mxGeometry width="50" height="50" relative="1" as="geometry">
            <mxPoint x="-110" y="430" as="sourcePoint" />
            <mxPoint x="-60" y="380" as="targetPoint" />
            <Array as="points">
              <mxPoint x="280" y="260" />
            </Array>
          </mxGeometry>
        </mxCell>
        <mxCell id="QfYBvfX-g-FYj6JUSHEv-74" value="" style="endArrow=classic;html=1;rounded=0;entryX=0.5;entryY=0;entryDx=0;entryDy=0;exitX=0.5;exitY=1;exitDx=0;exitDy=0;" edge="1" parent="1" source="QfYBvfX-g-FYj6JUSHEv-72" target="QfYBvfX-g-FYj6JUSHEv-46">
          <mxGeometry width="50" height="50" relative="1" as="geometry">
            <mxPoint x="220" y="450" as="sourcePoint" />
            <mxPoint x="270" y="400" as="targetPoint" />
            <Array as="points">
              <mxPoint x="250" y="370" />
            </Array>
          </mxGeometry>
        </mxCell>
        <mxCell id="QfYBvfX-g-FYj6JUSHEv-75" value="" style="endArrow=classic;html=1;rounded=0;exitX=0.5;exitY=1;exitDx=0;exitDy=0;" edge="1" parent="1" source="QfYBvfX-g-FYj6JUSHEv-12">
          <mxGeometry width="50" height="50" relative="1" as="geometry">
            <mxPoint x="-160" y="250" as="sourcePoint" />
            <mxPoint x="-180" y="330" as="targetPoint" />
            <Array as="points">
              <mxPoint x="-180" y="280" />
            </Array>
          </mxGeometry>
        </mxCell>
      </root>
    </mxGraphModel>
  </diagram>
</mxfile>
